# xmcd
#
# Track frame offsets: 
#        150
#        18354
#        40681
#        60601
#        83314
#        100395
#        122301
#        143463
#        163523
#        177164
#        206336
#
# Disc length: 2926 seconds
#
# Revision: 0
# Processed by: cddbd v1.5.2PL0 Copyright (c) Steve Scherf et al.
# Submitted via: ExactAudioCopy v0.99pb5
#
DISCID=770b6c0b
DTITLE=Jeremiah Johnson - Red White and Blues
DYEAR=2006
DGENRE=Blues
TTITLE0=Gasoline and Smokes
TTITLE1=Southern Draw'
TTITLE2=Everybody Party
TTITLE3=Sometimes
TTITLE4=Good Morning Fool
TTITLE5=King and Queen
TTITLE6=Tomorrow
TTITLE7=Shi-Loh
TTITLE8=Bent Down
TTITLE9=Summer Time
TTITLE10=Father Said
EXTD=
EXTT0=
EXTT1=
EXTT2=
EXTT3=
EXTT4=
EXTT5=
EXTT6=
EXTT7=
EXTT8=
EXTT9=
EXTT10=
PLAYORDER=
